# xmcd CD database file
#
# Track frame offsets:
#	150
#	15008
#	32914
#	48247
#	64603
#	81945
#	99530
#	114384
#	132535
#	143905
#	159504
#	174485
#	184917
#	216562
#
# Disc length: 3234 seconds
#
# Revision: 1
# Processed by: cddbd v1.5.2PL0 Copyright (c) Steve Scherf et al.
# Submitted via: CDex 1.70beta2
#
DISCID=bf0ca00e
DTITLE=Charlélie Couture - New-Yor Coeur
DYEAR=2006
DGENRE=Rock
TTITLE0=Même à  Spielberg
TTITLE1=J'suis miné
TTITLE2=Juste un instant
TTITLE3=Jamais assez (never enough)
TTITLE4=Une certaine lenteur rebelle
TTITLE5=L'empire du pire
TTITLE6=Follow the line
TTITLE7=Emmerdeur
TTITLE8=Ma Marseillaise
TTITLE9=Au coeur de Manhattan
TTITLE10=Ton jour de gloire
TTITLE11=Drop in, drop out
TTITLE12=Tous les hommes
TTITLE13=Bonus Clip (Même à  Spielberg)
EXTD=YEAR: 2006
EXTT0=
EXTT1=
EXTT2=
EXTT3=
EXTT4=
EXTT5=
EXTT6=
EXTT7=
EXTT8=
EXTT9=
EXTT10=
EXTT11=
EXTT12=
EXTT13=
PLAYORDER=
